<svg width="24" height="25" viewBox="0 0 24 25" fill="none" xmlns="http://www.w3.org/2000/svg">
<mask id="mask0_16_3269" style="mask-type:alpha" maskUnits="userSpaceOnUse" x="0" y="0" width="24" height="25">
<rect y="0.5" width="24" height="24" fill="#D9D9D9"/>
</mask>
<g mask="url(#mask0_16_3269)">
<path d="M8.99995 17.5006H11V8.50054H8.99995V17.5006ZM13 17.5006H15V8.50054H13V17.5006Z" fill="#1DB954"/>
<path d="M3.84827 6.00127L4.83308 5.82762L6.8027 5.48033L16.6508 3.74385L18.6204 3.39655L19.6052 3.2229L19.2579 1.25329L14.3339 2.12153L14.1602 1.13672L8.25137 2.17861L8.42501 3.16342L3.50098 4.03166L3.84827 6.00127Z" fill="#1DB954"/>
<path d="M6.99995 21.5006C6.44995 21.5006 5.97912 21.3047 5.58745 20.9131C5.19578 20.5214 4.99995 20.0506 4.99995 19.5006V6.50054H6.99995V19.5006H17V6.50054H19V19.5006C19 20.0506 18.8041 20.5214 18.4125 20.9131C18.0208 21.3047 17.55 21.5006 17 21.5006H6.99995Z" fill="#1DB954"/>
</g>
</svg>
